<svg width="1200" height="640" viewBox="0 0 1200 640" fill="none" xmlns="http://www.w3.org/2000/svg" role="img" aria-label="Spark join strategies diagram">
  <defs>
    <linearGradient id="bg" x1="0" y1="0" x2="1200" y2="640" gradientUnits="userSpaceOnUse">
      <stop stop-color="#F8FBFF"/>
      <stop offset="1" stop-color="#EEF5FF"/>
    </linearGradient>
    <linearGradient id="accent" x1="140" y1="110" x2="1060" y2="520" gradientUnits="userSpaceOnUse">
      <stop stop-color="#0369A1"/>
      <stop offset="1" stop-color="#0F4C81"/>
    </linearGradient>
    <filter id="shadow" x="-20%" y="-20%" width="140%" height="140%">
      <feDropShadow dx="0" dy="16" stdDeviation="18" flood-color="#0F172A" flood-opacity="0.10"/>
    </filter>
  </defs>

  <rect width="1200" height="640" rx="34" fill="url(#bg)"/>
  <rect x="24" y="24" width="1152" height="592" rx="28" fill="#FFFFFF" fill-opacity="0.82" stroke="#C6D4E6"/>

  <text x="60" y="82" fill="#0F172A" font-family="Inter, Arial, sans-serif" font-size="32" font-weight="700">Spark Join Strategies</text>
  <text x="60" y="116" fill="#5D6B82" font-family="Inter, Arial, sans-serif" font-size="18">how data moves before Spark can combine rows</text>

  <g filter="url(#shadow)">
    <rect x="60" y="170" width="180" height="120" rx="22" fill="#F6FAFF" stroke="#B9CBE4"/>
    <text x="96" y="215" fill="#0F172A" font-family="Inter, Arial, sans-serif" font-size="24" font-weight="700">Left table</text>
    <text x="92" y="244" fill="#5D6B82" font-family="Inter, Arial, sans-serif" font-size="16">rows A</text>
    <text x="76" y="270" fill="#5D6B82" font-family="Inter, Arial, sans-serif" font-size="16">join key: user_id</text>
  </g>

  <g filter="url(#shadow)">
    <rect x="60" y="348" width="180" height="120" rx="22" fill="#F6FAFF" stroke="#B9CBE4"/>
    <text x="92" y="393" fill="#0F172A" font-family="Inter, Arial, sans-serif" font-size="24" font-weight="700">Right table</text>
    <text x="92" y="422" fill="#5D6B82" font-family="Inter, Arial, sans-serif" font-size="16">rows B</text>
    <text x="76" y="448" fill="#5D6B82" font-family="Inter, Arial, sans-serif" font-size="16">join key: user_id</text>
  </g>

  <path d="M250 230H330" stroke="url(#accent)" stroke-width="6" stroke-linecap="round"/>
  <path d="M330 230L313 220M330 230L313 240" stroke="url(#accent)" stroke-width="6" stroke-linecap="round" stroke-linejoin="round"/>
  <path d="M250 408H330" stroke="url(#accent)" stroke-width="6" stroke-linecap="round"/>
  <path d="M330 408L313 398M330 408L313 418" stroke="url(#accent)" stroke-width="6" stroke-linecap="round" stroke-linejoin="round"/>

  <g filter="url(#shadow)">
    <rect x="350" y="146" width="230" height="150" rx="24" fill="#F6FAFF" stroke="#B9CBE4"/>
    <text x="380" y="192" fill="#0F172A" font-family="Inter, Arial, sans-serif" font-size="24" font-weight="700">Broadcast hash</text>
    <text x="403" y="220" fill="#0F172A" font-family="Inter, Arial, sans-serif" font-size="24" font-weight="700">join</text>
    <text x="380" y="249" fill="#5D6B82" font-family="Inter, Arial, sans-serif" font-size="16">small side copied</text>
    <text x="380" y="274" fill="#5D6B82" font-family="Inter, Arial, sans-serif" font-size="16">to every executor</text>
  </g>

  <g filter="url(#shadow)">
    <rect x="350" y="316" width="230" height="150" rx="24" fill="#F6FAFF" stroke="#B9CBE4"/>
    <text x="384" y="362" fill="#0F172A" font-family="Inter, Arial, sans-serif" font-size="24" font-weight="700">Sort-merge</text>
    <text x="422" y="390" fill="#0F172A" font-family="Inter, Arial, sans-serif" font-size="24" font-weight="700">join</text>
    <text x="380" y="419" fill="#5D6B82" font-family="Inter, Arial, sans-serif" font-size="16">shuffle both sides</text>
    <text x="380" y="444" fill="#5D6B82" font-family="Inter, Arial, sans-serif" font-size="16">then sort and merge</text>
  </g>

  <g filter="url(#shadow)">
    <rect x="350" y="486" width="230" height="102" rx="24" fill="#F6FAFF" stroke="#B9CBE4"/>
    <text x="385" y="530" fill="#0F172A" font-family="Inter, Arial, sans-serif" font-size="24" font-weight="700">Shuffle hash join</text>
    <text x="380" y="560" fill="#5D6B82" font-family="Inter, Arial, sans-serif" font-size="16">hash table built per partition</text>
  </g>

  <path d="M600 220H685" stroke="url(#accent)" stroke-width="6" stroke-linecap="round"/>
  <path d="M685 220L668 210M685 220L668 230" stroke="url(#accent)" stroke-width="6" stroke-linecap="round" stroke-linejoin="round"/>
  <path d="M600 390H685" stroke="url(#accent)" stroke-width="6" stroke-linecap="round"/>
  <path d="M685 390L668 380M685 390L668 400" stroke="url(#accent)" stroke-width="6" stroke-linecap="round" stroke-linejoin="round"/>
  <path d="M600 536H685" stroke="url(#accent)" stroke-width="6" stroke-linecap="round"/>
  <path d="M685 536L668 526M685 536L668 546" stroke="url(#accent)" stroke-width="6" stroke-linecap="round" stroke-linejoin="round"/>

  <g filter="url(#shadow)">
    <rect x="705" y="166" width="430" height="160" rx="26" fill="#F6FAFF" stroke="#B9CBE4"/>
    <text x="735" y="212" fill="#0F172A" font-family="Inter, Arial, sans-serif" font-size="24" font-weight="700">Why broadcast is fast</text>
    <text x="735" y="242" fill="#5D6B82" font-family="Inter, Arial, sans-serif" font-size="16">No shuffle on the small side, so matching happens locally on each executor.</text>
    <text x="735" y="272" fill="#5D6B82" font-family="Inter, Arial, sans-serif" font-size="16">Best when one table is truly small and stable enough to fit in memory.</text>
  </g>

  <g filter="url(#shadow)">
    <rect x="705" y="344" width="430" height="160" rx="26" fill="#F6FAFF" stroke="#B9CBE4"/>
    <text x="735" y="390" fill="#0F172A" font-family="Inter, Arial, sans-serif" font-size="24" font-weight="700">Why sort-merge is common</text>
    <text x="735" y="420" fill="#5D6B82" font-family="Inter, Arial, sans-serif" font-size="16">Both sides are shuffled by key, sorted, and merged partition by partition.</text>
    <text x="735" y="450" fill="#5D6B82" font-family="Inter, Arial, sans-serif" font-size="16">It is the safer choice for large equi-joins where broadcast is not realistic.</text>
  </g>

  <g filter="url(#shadow)">
    <rect x="705" y="522" width="430" height="72" rx="22" fill="#F6FAFF" stroke="#B9CBE4"/>
    <text x="735" y="566" fill="#5D6B82" font-family="Inter, Arial, sans-serif" font-size="16">Skew and shuffle size decide whether the plan stays efficient or becomes expensive.</text>
  </g>
</svg>
