<svg width="1200" height="560" viewBox="0 0 1200 560" fill="none" xmlns="http://www.w3.org/2000/svg" role="img" aria-label="Spark Teacher Analytics architecture diagram">
  <defs>
    <linearGradient id="bg" x1="0" y1="0" x2="1200" y2="560" gradientUnits="userSpaceOnUse">
      <stop stop-color="#F8FBFF"/>
      <stop offset="1" stop-color="#EEF5FF"/>
    </linearGradient>
    <linearGradient id="accent" x1="120" y1="80" x2="1080" y2="480" gradientUnits="userSpaceOnUse">
      <stop stop-color="#0369A1"/>
      <stop offset="1" stop-color="#0F4C81"/>
    </linearGradient>
  </defs>
  <rect width="1200" height="560" rx="34" fill="url(#bg)"/>
  <rect x="24" y="24" width="1152" height="512" rx="28" fill="#FFFFFF" fill-opacity="0.82" stroke="#C6D4E6"/>
  <text x="60" y="82" fill="#0F172A" font-family="Inter, Arial, sans-serif" font-size="30" font-weight="700">Spark Teacher Analytics</text>
  <text x="60" y="118" fill="#5D6B82" font-family="Inter, Arial, sans-serif" font-size="18">teacher scorecards, assignment summaries, and class rankings</text>

  <rect x="60" y="180" width="155" height="110" rx="22" fill="#F6FAFF" stroke="#B9CBE4"/>
  <text x="94" y="223" fill="#0F172A" font-family="Inter, Arial, sans-serif" font-size="21" font-weight="700">Students</text>
  <text x="98" y="251" fill="#5D6B82" font-family="Inter, Arial, sans-serif" font-size="16">roster + status</text>

  <rect x="60" y="310" width="155" height="110" rx="22" fill="#F6FAFF" stroke="#B9CBE4"/>
  <text x="84" y="353" fill="#0F172A" font-family="Inter, Arial, sans-serif" font-size="21" font-weight="700">Assignments</text>
  <text x="96" y="381" fill="#5D6B82" font-family="Inter, Arial, sans-serif" font-size="16">class + scores</text>

  <rect x="60" y="440" width="155" height="0" rx="22" fill="#F6FAFF" stroke="#B9CBE4"/>

  <rect x="260" y="220" width="230" height="150" rx="24" fill="#F6FAFF" stroke="#B9CBE4"/>
  <text x="304" y="264" fill="#0F172A" font-family="Inter, Arial, sans-serif" font-size="22" font-weight="700">Enriched Fact Table</text>
  <text x="294" y="294" fill="#5D6B82" font-family="Inter, Arial, sans-serif" font-size="16">clean joins and canonical class_id</text>
  <text x="300" y="318" fill="#5D6B82" font-family="Inter, Arial, sans-serif" font-size="16">submission status + timing</text>
  <text x="302" y="342" fill="#5D6B82" font-family="Inter, Arial, sans-serif" font-size="16">score and pass/fail flags</text>

  <path d="M215 235H260" stroke="url(#accent)" stroke-width="6" stroke-linecap="round"/>
  <path d="M215 365H260" stroke="url(#accent)" stroke-width="6" stroke-linecap="round"/>
  <path d="M260 235L243 225M260 235L243 245" stroke="url(#accent)" stroke-width="6" stroke-linecap="round" stroke-linejoin="round"/>
  <path d="M260 365L243 355M260 365L243 375" stroke="url(#accent)" stroke-width="6" stroke-linecap="round" stroke-linejoin="round"/>

  <rect x="545" y="140" width="195" height="90" rx="22" fill="#F6FAFF" stroke="#B9CBE4"/>
  <text x="576" y="184" fill="#0F172A" font-family="Inter, Arial, sans-serif" font-size="21" font-weight="700">Scorecard</text>

  <rect x="545" y="255" width="195" height="90" rx="22" fill="#F6FAFF" stroke="#B9CBE4"/>
  <text x="560" y="299" fill="#0F172A" font-family="Inter, Arial, sans-serif" font-size="21" font-weight="700">Assignment</text>
  <text x="581" y="323" fill="#0F172A" font-family="Inter, Arial, sans-serif" font-size="21" font-weight="700">Summary</text>

  <rect x="545" y="370" width="195" height="90" rx="22" fill="#F6FAFF" stroke="#B9CBE4"/>
  <text x="576" y="414" fill="#0F172A" font-family="Inter, Arial, sans-serif" font-size="21" font-weight="700">Rankings</text>

  <path d="M510 295H545" stroke="url(#accent)" stroke-width="6" stroke-linecap="round"/>
  <path d="M545 295L528 285M545 295L528 305" stroke="url(#accent)" stroke-width="6" stroke-linecap="round" stroke-linejoin="round"/>

  <path d="M740 185H865" stroke="url(#accent)" stroke-width="5" stroke-linecap="round" stroke-dasharray="8 8"/>
  <path d="M740 300H865" stroke="url(#accent)" stroke-width="5" stroke-linecap="round" stroke-dasharray="8 8"/>
  <path d="M740 415H865" stroke="url(#accent)" stroke-width="5" stroke-linecap="round" stroke-dasharray="8 8"/>

  <rect x="875" y="140" width="250" height="90" rx="22" fill="#F6FAFF" stroke="#B9CBE4"/>
  <text x="908" y="184" fill="#0F172A" font-family="Inter, Arial, sans-serif" font-size="20" font-weight="700">Teacher dashboard</text>

  <rect x="875" y="255" width="250" height="90" rx="22" fill="#F6FAFF" stroke="#B9CBE4"/>
  <text x="902" y="299" fill="#0F172A" font-family="Inter, Arial, sans-serif" font-size="20" font-weight="700">Admin reporting</text>

  <rect x="875" y="370" width="250" height="90" rx="22" fill="#F6FAFF" stroke="#B9CBE4"/>
  <text x="914" y="414" fill="#0F172A" font-family="Inter, Arial, sans-serif" font-size="20" font-weight="700">Class ranking view</text>

  <text x="80" y="390" fill="#0F172A" font-family="Inter, Arial, sans-serif" font-size="22" font-weight="700">Implementation highlights</text>
  <text x="80" y="426" fill="#5D6B82" font-family="Inter, Arial, sans-serif" font-size="18">clean the source tables, join them once, then build metric tables that can feed dashboards</text>
</svg>
